<mxfile host="app.diagrams.net" modified="2021-11-18T13:16:29.851Z" agent="5.0 (Macintosh; Intel Mac OS X 10_15_7) AppleWebKit/537.36 (KHTML, like Gecko) Chrome/95.0.4638.69 Safari/537.36" etag="dAQB5zbAlAqzWzAndUtL" version="15.8.0" type="github">
  <diagram id="V0rhfNUSmUMLVO6gRo0g" name="Page-1">
    <mxGraphModel dx="1298" dy="834" grid="1" gridSize="10" guides="1" tooltips="1" connect="1" arrows="1" fold="1" page="1" pageScale="1" pageWidth="827" pageHeight="1169" math="0" shadow="0">
      <root>
        <mxCell id="0" />
        <mxCell id="1" parent="0" />
        <mxCell id="WrLMTdIefsdOvaj7IvpW-3" style="edgeStyle=orthogonalEdgeStyle;rounded=0;orthogonalLoop=1;jettySize=auto;html=1;exitX=1;exitY=0.5;exitDx=0;exitDy=0;entryX=0;entryY=0.5;entryDx=0;entryDy=0;" edge="1" parent="1" source="WrLMTdIefsdOvaj7IvpW-1" target="WrLMTdIefsdOvaj7IvpW-2">
          <mxGeometry relative="1" as="geometry" />
        </mxCell>
        <mxCell id="WrLMTdIefsdOvaj7IvpW-1" value="trim" style="rounded=1;whiteSpace=wrap;html=1;fillColor=#fff2cc;strokeColor=#d6b656;" vertex="1" parent="1">
          <mxGeometry x="40" y="420" width="80" height="40" as="geometry" />
        </mxCell>
        <mxCell id="WrLMTdIefsdOvaj7IvpW-5" style="edgeStyle=orthogonalEdgeStyle;rounded=0;orthogonalLoop=1;jettySize=auto;html=1;exitX=1;exitY=0.5;exitDx=0;exitDy=0;entryX=0;entryY=0.5;entryDx=0;entryDy=0;" edge="1" parent="1" source="WrLMTdIefsdOvaj7IvpW-2" target="WrLMTdIefsdOvaj7IvpW-4">
          <mxGeometry relative="1" as="geometry" />
        </mxCell>
        <mxCell id="WrLMTdIefsdOvaj7IvpW-2" value="&lt;pre style=&quot;background-color: #212121 ; color: #eeffff ; font-family: &amp;#34;menlo&amp;#34; , monospace ; font-size: 9.0pt&quot;&gt;trim &lt;span style=&quot;color: #c3e88d&quot;&gt;&quot;0.0.1&quot;&lt;/span&gt;&lt;/pre&gt;" style="rounded=1;whiteSpace=wrap;html=1;fillColor=#f8cecc;strokeColor=#b85450;" vertex="1" parent="1">
          <mxGeometry x="160" y="420" width="100" height="40" as="geometry" />
        </mxCell>
        <mxCell id="WrLMTdIefsdOvaj7IvpW-8" style="edgeStyle=orthogonalEdgeStyle;rounded=0;orthogonalLoop=1;jettySize=auto;html=1;exitX=1;exitY=0.5;exitDx=0;exitDy=0;" edge="1" parent="1" source="WrLMTdIefsdOvaj7IvpW-4" target="WrLMTdIefsdOvaj7IvpW-6">
          <mxGeometry relative="1" as="geometry" />
        </mxCell>
        <mxCell id="WrLMTdIefsdOvaj7IvpW-9" style="edgeStyle=orthogonalEdgeStyle;rounded=0;orthogonalLoop=1;jettySize=auto;html=1;exitX=1;exitY=0.5;exitDx=0;exitDy=0;entryX=0;entryY=0.5;entryDx=0;entryDy=0;" edge="1" parent="1" source="WrLMTdIefsdOvaj7IvpW-4" target="WrLMTdIefsdOvaj7IvpW-7">
          <mxGeometry relative="1" as="geometry" />
        </mxCell>
        <mxCell id="WrLMTdIefsdOvaj7IvpW-4" value="&lt;pre style=&quot;background-color: #212121 ; color: #eeffff ; font-family: &amp;#34;menlo&amp;#34; , monospace ; font-size: 9.0pt&quot;&gt;&lt;pre style=&quot;font-family: &amp;#34;menlo&amp;#34; , monospace ; font-size: 9pt&quot;&gt;remark-parse@^&lt;span style=&quot;color: #f78c6c&quot;&gt;5.0&lt;/span&gt;.&lt;span style=&quot;color: #f78c6c&quot;&gt;0&lt;/span&gt;&lt;/pre&gt;&lt;/pre&gt;" style="rounded=1;whiteSpace=wrap;html=1;fillColor=#f8cecc;strokeColor=#b85450;" vertex="1" parent="1">
          <mxGeometry x="300" y="420" width="150" height="40" as="geometry" />
        </mxCell>
        <mxCell id="WrLMTdIefsdOvaj7IvpW-12" style="edgeStyle=orthogonalEdgeStyle;rounded=0;orthogonalLoop=1;jettySize=auto;html=1;exitX=1;exitY=0.5;exitDx=0;exitDy=0;entryX=0;entryY=0.5;entryDx=0;entryDy=0;" edge="1" parent="1" source="WrLMTdIefsdOvaj7IvpW-6" target="WrLMTdIefsdOvaj7IvpW-11">
          <mxGeometry relative="1" as="geometry" />
        </mxCell>
        <mxCell id="WrLMTdIefsdOvaj7IvpW-6" value="&lt;pre style=&quot;background-color: #212121 ; color: #eeffff ; font-family: &amp;#34;menlo&amp;#34; , monospace ; font-size: 9.0pt&quot;&gt;&lt;pre style=&quot;font-family: &amp;#34;menlo&amp;#34; , monospace ; font-size: 9pt&quot;&gt;&lt;pre style=&quot;font-family: &amp;#34;menlo&amp;#34; , monospace ; font-size: 9pt&quot;&gt;react-markdown@^&lt;span style=&quot;color: #f78c6c&quot;&gt;4.0&lt;/span&gt;.&lt;span style=&quot;color: #f78c6c&quot;&gt;6&lt;/span&gt;&lt;/pre&gt;&lt;/pre&gt;&lt;/pre&gt;" style="rounded=1;whiteSpace=wrap;html=1;fillColor=#f8cecc;strokeColor=#b85450;" vertex="1" parent="1">
          <mxGeometry x="490" y="380" width="170" height="40" as="geometry" />
        </mxCell>
        <mxCell id="WrLMTdIefsdOvaj7IvpW-14" style="edgeStyle=orthogonalEdgeStyle;rounded=0;orthogonalLoop=1;jettySize=auto;html=1;exitX=1;exitY=0.5;exitDx=0;exitDy=0;entryX=0;entryY=0.5;entryDx=0;entryDy=0;" edge="1" parent="1" source="WrLMTdIefsdOvaj7IvpW-7" target="WrLMTdIefsdOvaj7IvpW-13">
          <mxGeometry relative="1" as="geometry" />
        </mxCell>
        <mxCell id="WrLMTdIefsdOvaj7IvpW-7" value="&lt;pre style=&quot;background-color: #212121 ; color: #eeffff ; font-family: &amp;#34;menlo&amp;#34; , monospace ; font-size: 9.0pt&quot;&gt;&lt;pre style=&quot;font-family: &amp;#34;menlo&amp;#34; , monospace ; font-size: 9pt&quot;&gt;&lt;pre style=&quot;font-family: &amp;#34;menlo&amp;#34; , monospace ; font-size: 9pt&quot;&gt;react-markdown@^&lt;span style=&quot;color: #f78c6c&quot;&gt;4.1&lt;/span&gt;.&lt;span style=&quot;color: #f78c6c&quot;&gt;0&lt;/span&gt;&lt;/pre&gt;&lt;/pre&gt;&lt;/pre&gt;" style="rounded=1;whiteSpace=wrap;html=1;fillColor=#f8cecc;strokeColor=#b85450;" vertex="1" parent="1">
          <mxGeometry x="490" y="460" width="170" height="40" as="geometry" />
        </mxCell>
        <mxCell id="WrLMTdIefsdOvaj7IvpW-11" value="&lt;pre style=&quot;background-color: #212121 ; color: #eeffff ; font-family: &amp;#34;menlo&amp;#34; , monospace ; font-size: 9.0pt&quot;&gt;&lt;pre style=&quot;font-family: &amp;#34;menlo&amp;#34; , monospace ; font-size: 9pt&quot;&gt;&lt;pre style=&quot;font-family: &amp;#34;menlo&amp;#34; , monospace ; font-size: 9pt&quot;&gt;&lt;pre style=&quot;color: rgb(0 , 0 , 0)&quot;&gt;&lt;font color=&quot;#eeffff&quot; face=&quot;menlo, monospace&quot;&gt;package.json&lt;/font&gt;&lt;/pre&gt;&lt;/pre&gt;&lt;/pre&gt;&lt;/pre&gt;" style="rounded=1;whiteSpace=wrap;html=1;fillColor=#f8cecc;strokeColor=#b85450;" vertex="1" parent="1">
          <mxGeometry x="700" y="380" width="110" height="40" as="geometry" />
        </mxCell>
        <mxCell id="WrLMTdIefsdOvaj7IvpW-13" value="&lt;pre style=&quot;background-color: rgb(33 , 33 , 33)&quot;&gt;&lt;pre&gt;&lt;pre&gt;&lt;font color=&quot;#eeffff&quot; face=&quot;menlo, monospace&quot;&gt;projects/web/package.json&lt;span style=&quot;font-size: 9pt&quot;&gt;&lt;br&gt;&lt;/span&gt;&lt;/font&gt;&lt;/pre&gt;&lt;/pre&gt;&lt;/pre&gt;" style="rounded=1;whiteSpace=wrap;html=1;fillColor=#f8cecc;strokeColor=#b85450;" vertex="1" parent="1">
          <mxGeometry x="700" y="460" width="210" height="40" as="geometry" />
        </mxCell>
      </root>
    </mxGraphModel>
  </diagram>
</mxfile>
